<?xml version="1.0" encoding="UTF-8" standalone="no"?>
<svg
   xmlns:dc="http://purl.org/dc/elements/1.1/"
   xmlns:cc="http://creativecommons.org/ns#"
   xmlns:rdf="http://www.w3.org/1999/02/22-rdf-syntax-ns#"
   xmlns:svg="http://www.w3.org/2000/svg"
   xmlns="http://www.w3.org/2000/svg"
   xmlns:sodipodi="http://sodipodi.sourceforge.net/DTD/sodipodi-0.dtd"
   xmlns:inkscape="http://www.inkscape.org/namespaces/inkscape"
   viewBox="0 0 32 32"
   version="1.1"
   id="svg23"
   sodipodi:docname="iconfinder_microphone-mic-speak-voice-recorder_3643759.svg"
   inkscape:version="1.0.1 (c497b03c, 2020-09-10)">
  <metadata
     id="metadata27">
    <rdf:RDF>
      <cc:Work
         rdf:about="">
        <dc:format>image/svg+xml</dc:format>
        <dc:type
           rdf:resource="http://purl.org/dc/dcmitype/StillImage" />
      </cc:Work>
    </rdf:RDF>
  </metadata>
  <sodipodi:namedview
     pagecolor="#ffffff"
     bordercolor="#666666"
     borderopacity="1"
     objecttolerance="10"
     gridtolerance="10"
     guidetolerance="10"
     inkscape:pageopacity="0"
     inkscape:pageshadow="2"
     inkscape:window-width="1563"
     inkscape:window-height="956"
     id="namedview25"
     showgrid="false"
     inkscape:zoom="24.09375"
     inkscape:cx="16"
     inkscape:cy="16"
     inkscape:window-x="0"
     inkscape:window-y="25"
     inkscape:window-maximized="0"
     inkscape:current-layer="svg23" />
  <defs
     id="defs12">
    <style
       id="style10">.cls-1{fill:#101820;}</style>
  </defs>
  <title
     id="title14" />
  <g
     data-name="Layer 46"
     id="Layer_46"
     style="fill:#ffffff">
    <path
       class="cls-1"
       d="M16,27A10,10,0,0,1,6,17a1,1,0,0,1,2,0,8,8,0,0,0,16,0,1,1,0,0,1,2,0A10,10,0,0,1,16,27Z"
       id="path16"
       style="fill:#ffffff" />
    <path
       class="cls-1"
       d="M16,31a1,1,0,0,1-1-1V26a1,1,0,0,1,2,0v4A1,1,0,0,1,16,31Z"
       id="path18"
       style="fill:#ffffff" />
    <path
       class="cls-1"
       d="M16,23a6,6,0,0,1-6-6V7A6,6,0,0,1,22,7V17A6,6,0,0,1,16,23ZM16,3a4,4,0,0,0-4,4V17a4,4,0,0,0,8,0V7A4,4,0,0,0,16,3Z"
       id="path20"
       style="fill:#ffffff" />
  </g>
</svg>
